<svg xmlns="http://www.w3.org/2000/svg" viewBox="0 0 512 512" preserveAspectRatio="xMidYMid meet"><path d="m321 44 1.718 1.056C338.057 54.688 351.852 68.337 361 84l1.138 1.92C378.517 113.95 384.124 147.28 376 179l-.504 2.003c-8.006 30.729-28.42 57.868-55.613 74.165-16.503 9.568-35.533 16.83-54.801 17.07l-1.971.03c-14.428.172-28.211.101-42.111-4.268l-2.088-.65C199.692 261.164 183.66 250.8 169 237l-1.793-1.598c-20.246-18.803-32.934-48.788-34.35-76.154-.473-14.89.252-28.82 4.143-43.248l.519-1.999C145.266 85.052 165.744 59.696 191 44l1.731-1.08C231.392 19.379 282.718 20.186 321 44M192 86l-2.332 2.332c-16.638 17.545-24.228 39.745-24.09 63.68.386 14.023 3.81 26.66 10.422 38.988l1.52 3.008c10.92 20.353 30.638 35.04 52.384 42.108 23.069 6.844 47.533 4.335 68.773-6.938 7.063-3.973 13.297-8.783 19.323-14.178l1.918-1.668c15.588-14.447 25.503-37.163 26.305-58.164.667-28.263-8.352-50.552-27.848-71.23-16.215-16.289-39.475-24.655-62.125-25.25C231.537 58.86 209.377 68.623 192 86"/><path d="m255.313 303.625 2.927.002c15.948.04 31.144.963 46.76 4.373l3.004.65C328.008 313.123 346.98 320.256 365 330l1.814.968c38.681 20.769 70.243 55.319 83.436 97.594 3.917 13.19 10.452 35.804 3.871 48.872-2.857 3.992-6.475 7.017-11.121 8.566-5.937.582-10.042-.648-15-4-3.428-3.3-5.063-6.446-5.395-11.156-1.421-18.281-4.424-34.348-12.605-50.844l-1.469-3.02c-18.318-35.567-54.602-58.558-91.593-70.671-51-15.908-106.639-11.022-154.012 13.554-10.027 5.359-19.29 11.745-27.926 19.137l-2.484 2.113c-25.119 21.96-40.395 51.103-42.817 84.563l-.199 3.137c-.429 5.911-1.46 9.255-5.875 13.437-4.737 3.158-8.895 4.54-14.625 3.75-5.387-1.869-8.863-5.248-12-10-7.228-22.895 5.932-54.528 16.082-74.578C84.058 380.57 100.412 362.358 119 348l1.521-1.18C136.483 334.6 154.187 325.02 173 318l2.482-.933c25.913-9.573 52.33-13.5 79.83-13.442"/></svg>